<svg xmlns="http://www.w3.org/2000/svg" viewBox="0 0 800 600" role="img" aria-labelledby="title desc">
  <title id="title">Car placeholder</title>
  <desc id="desc">A neutral placeholder image for cars without uploaded photos.</desc>
  <rect width="800" height="600" fill="#f1f5f9"/>
  <rect x="96" y="340" width="608" height="96" rx="34" fill="#cbd5e1"/>
  <path d="M198 340l68-96c18-25 47-40 78-40h132c31 0 60 15 78 40l68 96H198z" fill="#94a3b8"/>
  <path d="M287 268c10-14 26-22 43-22h58v94H219l68-72zM427 246h48c17 0 33 8 43 22l68 72H427v-94z" fill="#e2e8f0"/>
  <circle cx="236" cy="436" r="48" fill="#475569"/>
  <circle cx="564" cy="436" r="48" fill="#475569"/>
  <circle cx="236" cy="436" r="20" fill="#cbd5e1"/>
  <circle cx="564" cy="436" r="20" fill="#cbd5e1"/>
  <rect x="616" y="372" width="54" height="18" rx="9" fill="#f8fafc"/>
  <rect x="126" y="372" width="54" height="18" rx="9" fill="#f8fafc"/>
  <text x="400" y="156" text-anchor="middle" font-family="Arial, Helvetica, sans-serif" font-size="32" font-weight="700" fill="#64748b">No car photo</text>
</svg>
